# xmcd
#
# Track frame offsets:
#	150
#	14475
#	26227
#	37582
#	49292
#	65642
#	83895
#	93022
#	106060
#	124520
#
# Disc length: 1851
#
# Revision: 3
# Processed by: cddbd v1.5.1PL0 Copyright (c) Steve Scherf et al.
# Submitted via: ExactAudioCopy v0.90b4
# Normalized: r1:TSWAP
#
DISCID=7407390a
DTITLE=Various Artist - Trucker's Jukebox
DYEAR=1991
DGENRE=Country
TTITLE0=Asleep at the Wheel - House of Blue Light
TTITLE1=Moe Bandy and Joe Stampley - Just Good Ol' Boys
TTITLE2=Marty Robbins - Ribon of Darkness
TTITLE3=Carl Smith - Back Up Buddy
TTITLE4=Johnny Paycheck - Colorado Coolaid
TTITLE5=CharlieDaniels - Long Haired Country Boy
TTITLE6=Charlie Walker - Truck Drivn' Man
TTITLE7=Willie Nelson - Midnight Rider
TTITLE8=Johnny Cash - One Peice at A Time
TTITLE9=David Allan Coe - The Ride
EXTD=
EXTT0=
EXTT1=
EXTT2=
EXTT3=
EXTT4=
EXTT5=
EXTT6=
EXTT7=
EXTT8=
EXTT9=
PLAYORDER=
